<!-- Generator: Adobe Illustrator 18.0.0, SVG Export Plug-In  -->
<svg version="1.1"
     xmlns="http://www.w3.org/2000/svg" xmlns:xlink="http://www.w3.org/1999/xlink" xmlns:a="http://ns.adobe.com/AdobeSVGViewerExtensions/3.0/"
     x="0px" y="0px" width="233.9px" height="204.1px" viewBox="0 0 233.9 204.1" enable-background="new 0 0 233.9 204.1"
     xml:space="preserve">
<defs>
</defs>
<path fill="#496567" d="M233.9,0v172.3c0,16.8-14.7,31.8-30,31.8H39c-25.4,0-39-13.2-39-45.4V35.1h37.9V0H233.9L233.9,0z"/>
<path fill="#FFFFFF" d="M37.9,46.8H12.4v113.8c0,17.5,6.5,25.8,12.6,25.8c7.4,0,12.8-8.2,12.8-25.8V46.8z M219.4,14H51.5v149.2
    c0,12.1-2.2,20.8-5.6,27.6h156.9c6.7,0,17.7-9,16.5-22.1V14z"/>
<path fill="#496567" d="M192.4,46.4H79.5c-3.4,0-6.1-2.7-6.1-6.1c0-3.4,2.7-6.1,6.1-6.1h112.9c3.4,0,6.1,2.7,6.1,6.1
    C198.5,43.7,195.8,46.4,192.4,46.4z M149.7,118.3c-1-1.4-2.2-2.3-3.8-2.7s-3.5-0.6-5.8-0.6h-18.5c-2.2,0-4,0.6-5.3,1.8
    c-1.3,1.2-2,2.7-2,4.5c0,2.2,0.8,3.8,2.3,4.7s3.9,1.4,6.9,1.4h12.6v13.1c-3.4,1.8-6.8,3.2-10.1,4.2c-3.3,1-6.9,1.5-10.6,1.5
    c-7.8,0-13.8-2.5-18.2-7.6c-4.3-5.1-6.5-12.4-6.5-21.8c0-4.4,0.6-8.3,1.7-11.9s2.7-6.6,4.8-9.1c2.1-2.5,4.6-4.4,7.6-5.7
    c3-1.3,6.3-2,10.1-2c3.7,0,6.7,0.5,9,1.6s4.2,2.5,5.6,4.1s3.1,4,5.1,7.1c0.7,1,1.6,1.8,2.7,2.3s2.2,0.8,3.4,0.8
    c2.1,0,3.9-0.7,5.5-2.2c1.5-1.4,2.3-3.2,2.3-5.3c0-1.9-0.7-4.1-2-6.5c-1.3-2.5-3.3-4.8-5.9-7c-2.6-2.2-6-4-10.2-5.5
    c-4.2-1.4-9-2.2-14.4-2.2c-6.6,0-12.5,1-17.7,2.9c-5.2,1.9-9.6,4.7-13.3,8.3s-6.4,8-8.2,13.3s-2.8,10.9-2.8,17.2
    c0,6.4,1,12.2,2.9,17.3c1.9,5.2,4.7,9.6,8.3,13.2s7.9,6.4,13,8.3c5.1,1.9,10.7,2.9,16.9,2.9c5.3,0,10.2-0.6,14.7-1.8
    c4.5-1.2,9.2-3.1,14.1-5.8c1.7-0.9,3.1-1.9,4.2-2.9s1.8-2.1,2.2-3.3c0.4-1.2,0.6-2.9,0.6-4.9v-15.5
    C151.1,121.8,150.7,119.7,149.7,118.3z M161.3,100.5c-1.2,1-1.8,2.3-1.8,3.9c0,1.6,0.6,2.9,1.7,3.9s2.8,1.5,4.9,1.5h2v28.8
    c0,4.7,0.4,8.4,1.1,11.2s2.3,5,4.8,6.5c2.4,1.6,6,2.4,10.7,2.4c4.9,0,8.7-0.6,11.4-1.9c2.6-1.3,4-3.1,4-5.6c0-1.4-0.5-2.6-1.5-3.6
    c-1-1-2.1-1.5-3.3-1.5c-0.8,0-2,0.2-3.5,0.5c-1.5,0.3-2.7,0.5-3.6,0.5c-1.6,0-2.8-0.4-3.5-1.2c-0.7-0.8-1.2-1.8-1.3-3.1
    c-0.2-1.3-0.2-3.1-0.2-5.4v-27.6h2.8c3,0,5.3-0.4,6.8-1.2c1.6-0.8,2.4-2.2,2.4-4.2c0-1.6-0.6-2.9-1.7-3.9c-1.1-1-2.7-1.5-4.9-1.5
    h-5.5V88.8c0-2.5-0.1-4.5-0.4-5.9c-0.3-1.4-0.9-2.5-2-3.5c-1.5-1.4-3.3-2.1-5.2-2.1c-1.4,0-2.6,0.3-3.7,1c-1.1,0.6-1.9,1.5-2.5,2.5
    c-0.6,1-0.9,2.2-1.1,3.5c-0.1,1.4-0.2,3.3-0.2,5.7v9h-1.6C164.2,99,162.5,99.5,161.3,100.5z"/>
</svg>